<svg xmlns="http://www.w3.org/2000/svg" viewBox="0 0 64 64" fill="none">
  <!-- broken ring (gap on the left) -->
  <path d="M20 22.5 A21 21 0 1 1 20 43.5" stroke="#2c76ed" stroke-width="3.2" stroke-linecap="round" stroke-linejoin="round"/>
  <!-- waveform -->
  <g stroke="#2c76ed" stroke-width="2.6" stroke-linecap="round">
    <path d="M17 23h0"/>
    <path d="M13 28h6"/>
    <path d="M14.5 32h4"/>
    <path d="M11.5 36h8"/>
    <path d="M15 40.5h2"/>
  </g>
  <!-- phone handset -->
  <g transform="translate(26.5 21.5) scale(1.05)" stroke="#2c76ed" stroke-width="2.3" stroke-linecap="round" stroke-linejoin="round">
<svg xmlns="http://www.w3.org/2000/svg" viewBox="0 0 64 64">
  <rect width="64" height="64" rx="14" fill="#FF6320"/>
  <g transform="translate(14 14) scale(1.5)" fill="none" stroke="#ffffff" stroke-width="2" stroke-linecap="round" stroke-linejoin="round">
    <path d="M22 16.92v3a2 2 0 0 1-2.18 2 19.79 19.79 0 0 1-8.63-3.07 19.5 19.5 0 0 1-6-6 19.79 19.79 0 0 1-3.07-8.67A2 2 0 0 1 4.11 2h3a2 2 0 0 1 2 1.72 12.84 12.84 0 0 0 .7 2.81 2 2 0 0 1-.45 2.11L8.09 9.91a16 16 0 0 0 6 6l1.27-1.27a2 2 0 0 1 2.11-.45 12.84 12.84 0 0 0 2.81.7A2 2 0 0 1 22 16.92z"/>
  </g>
</svg>
