<svg xmlns="http://www.w3.org/2000/svg" viewBox="0 0 60 40">
  <rect width="60" height="40" fill="#012169"/>
  <svg x="0" y="0" width="30" height="20" viewBox="0 0 60 40">
    <rect width="60" height="40" fill="#012169"/>
    <path d="M0,0 60,40 M60,0 0,40" stroke="#fff" stroke-width="8"/>
    <path d="M0,0 60,40 M60,0 0,40" stroke="#C8102E" stroke-width="4"/>
    <path d="M30,0 V40 M0,20 H60" stroke="#fff" stroke-width="13"/>
    <path d="M30,0 V40 M0,20 H60" stroke="#C8102E" stroke-width="7"/>
  </svg>
  <g fill="#fff">
    <path d="M15 26.6 L16.1 29 L18.6 29.2 L16.7 30.9 L17.3 33.4 L15 32 L12.7 33.4 L13.3 30.9 L11.4 29.2 L13.9 29 Z"/>
    <circle cx="45" cy="8" r="1.8"/>
    <circle cx="52" cy="15" r="1.8"/>
    <circle cx="45" cy="28" r="1.8"/>
    <circle cx="38.5" cy="16.5" r="1.8"/>
    <circle cx="48.5" cy="19.5" r="1"/>
  </g>
</svg>
